<?xml version="1.0" standalone="yes"?>
<svg xmlns="http://www.w3.org/2000/svg" width="2200" height="1200">
<path style="fill:#000000; stroke:none;" fill-rule="evenodd" d="M181 579C196.679 578.327 212.288 575.13 228 575L228 439C279.535 443.102 326.415 481.093 349.244 526C355.893 539.079 363.351 555.123 364 570L422 570C423.349 553.486 431.441 535.226 439.579 521C464.585 477.284 507.656 445.779 558 439L558 575C574.028 575.044 590 578.313 606 579L606 444L606 409C606 405.028 607.322 397.941 604.821 394.564C602.135 390.937 593.086 391.358 589 391C573.268 389.622 557.573 390.217 542 393.197C493.416 402.494 447.951 428.839 417.424 468C408.837 479.017 397.921 492.414 394 506L392 506C387.467 490.263 374.654 474.245 364.13 462C333.307 426.136 291.106 402.806 245 393.6C229.373 390.48 214.737 390.626 199 391C194.751 391.101 184.835 390.774 182.028 394.564C179.737 397.657 181 404.355 181 408L181 443L181 579M812 717L813 595L812 536C820.211 545.092 825.366 559.277 831.424 570C846.413 596.527 860.612 623.456 875.576 650C882.864 662.929 888.885 682.845 902 691.005C914.493 698.78 937.872 697.171 947.699 685.985C953.118 679.815 956.428 672.088 960.424 665C968.624 650.456 976.369 635.679 984.309 621C994.812 601.582 1005.68 582.351 1016.31 563C1021.22 554.047 1027.07 545.447 1031 536C1032.52 541.146 1032 546.661 1032 552L1032 579L1032 670L1032 704C1032 707.243 1030.86 713.641 1033.74 715.972C1035.97 717.772 1040.35 717 1043 717L1068 717C1071.07 717 1076.56 718.019 1078.26 714.682C1080.45 710.39 1079 702.711 1079 698L1079 660L1079 552C1079 535.052 1082.7 516.368 1077.25 500C1071.04 481.376 1050.87 483 1035 483C1027.24 483 1018.91 482.821 1012 486.98C1003.87 491.88 999.283 501.092 994.603 509C984.548 525.994 975.716 543.734 966.139 561C951.391 587.588 937.876 615.065 922 641C918.107 631.965 912.266 623.57 907.424 615C898.126 598.541 888.93 581.798 880.258 565C871.055 547.171 861.255 529.639 851.691 512C847.256 503.82 842.709 494.335 834.999 488.789C826.521 482.69 817.952 483 808 483C794.116 483 778.598 481.663 769.969 495.001C761.111 508.694 765 530.461 765 546L765 664L765 702C765 705.694 763.728 712.521 766.603 715.397C769.337 718.13 775.497 717 779 717L812 717M1202 483.424C1177.16 486.686 1153.88 490.132 1136.17 510C1126.25 521.133 1121.44 536.599 1119.08 551C1116.37 567.55 1117 584.28 1117 601C1117 630.005 1115.68 662.13 1133.21 687C1144.88 703.556 1164.6 712.007 1184 715.247C1199.53 717.84 1215.29 717 1231 717L1300 717L1339 717C1343.76 717 1351.62 718.477 1355.85 715.972C1359.88 713.588 1359 707.966 1359 704C1359 695.44 1363.09 674.974 1351.99 672.483C1339.39 669.657 1323.9 672 1311 672L1228 672C1209.31 672 1185.53 672.866 1174.13 655C1163.65 638.567 1167 613.549 1167 595C1167 580.157 1165.91 563.928 1172.04 550C1181.15 529.31 1205.49 528 1225 528L1318 528L1343 528C1346.72 528 1351.51 528.722 1354.89 526.821C1358.59 524.74 1358.94 520.819 1359 517C1359.12 508.408 1359.5 499.577 1358.96 491.001C1358.73 487.487 1357.61 484.501 1353.96 483.434C1349.15 482.031 1342.97 483 1338 483L1304 483L1238 483C1226.18 483 1213.72 481.885 1202 483.424M1445 641L1551 641C1576.44 641 1603.43 642.286 1625 626.239C1648.77 608.558 1649.97 574.841 1648.09 548C1647.07 533.42 1643.79 517.344 1633.81 506.001C1615.3 484.946 1587.08 483 1561 483L1455 483L1414 483C1408.7 483 1401.39 481.704 1397.51 486.228C1394.73 489.479 1395.01 494 1395 498L1395 519L1395 607L1395 687C1395 693.666 1394.96 700.334 1395 707C1395.02 709.771 1394.78 713.242 1396.89 715.397C1398.71 717.253 1401.63 716.983 1404 716.999L1420 717L1436 716.999C1438.42 716.983 1441.53 717.268 1443.4 715.397C1447.02 711.77 1445 700.762 1445 696L1445 641M1799 483C1803.45 494.499 1815.72 504.95 1823.93 514C1840.31 532.068 1856.29 550.583 1872.28 569C1878.42 576.065 1884.58 583.112 1890.91 590C1893.14 592.422 1897.84 596.411 1897.8 600C1897.76 603.4 1893.47 606.639 1891.42 609C1884.41 617.112 1877.5 625.316 1870.01 633C1856.34 647.041 1843.94 662.432 1830.83 677C1819.16 689.964 1805.97 702.674 1796 717L1838 717C1843.57 717 1851.62 718.457 1856.83 716.258C1860.4 714.749 1863.12 710.844 1865.58 708C1869.71 703.219 1874.1 698.671 1878.26 693.911C1889.35 681.215 1900.66 668.717 1911.72 656C1918.08 648.691 1924.19 639.749 1932 634C1935.9 641.517 1943.17 647.614 1948.72 654C1960.34 667.378 1972.2 680.553 1983.73 694C1989.46 700.683 1997.55 713.281 2006 716.397C2011.41 718.391 2019.29 717 2025 717L2067 717C2057.96 704.171 2045.68 692.688 2035.17 681C2020.31 664.478 2006.22 647.159 1990.96 631C1983.92 623.541 1977.14 615.762 1970.42 608C1968.48 605.753 1964.21 602.317 1964.63 599C1965.08 595.487 1969.9 591.518 1972.17 589L1991.83 567C2007.56 549.495 2022.57 531.333 2038.31 513.83C2046.63 504.583 2058.74 494.288 2064 483L2021 483C2013.77 483 2006.75 481.89 2001.01 487.109C1994.25 493.268 1988.56 501.085 1982.58 508C1971.54 520.748 1960.5 533.592 1949.09 546C1945.13 550.302 1941.18 554.641 1937.29 558.998C1935.71 560.764 1933.72 563.944 1931.02 563.944C1928.39 563.944 1926.39 560.724 1924.84 558.998C1920.4 554.02 1915.94 549.05 1911.58 544C1901.16 531.936 1890.53 520.077 1880.13 508C1873.96 500.838 1868.02 492.466 1860.91 486.228C1855.77 481.714 1848.36 483 1842 483L1799 483z M1445 528L1445 597C1478.56 597 1512.47 595.571 1546 597.039C1560.26 597.664 1580.36 600.781 1591.79 589.671C1598.02 583.61 1598.99 574.207 1599 566C1599.02 551.283 1598.66 535.426 1582 530.051C1567.63 525.414 1549.94 528 1535 528L1445 528z"/>
<path style="fill:#000000; stroke:none;" d="M1684.23 581.742C1681 583.251 1681.05 586.926 1681 590C1680.91 596.988 1680.87 604.012 1681 610.999C1681.06 613.89 1681.15 616.9 1684.15 618.258C1691.05 621.382 1703.49 619 1711 619L1774 619L1794 619C1796.67 618.999 1800.33 619.54 1802.68 617.972C1805.27 616.245 1804.98 612.725 1805 610C1805.05 603.007 1805.13 595.992 1805 589C1804.94 586.128 1804.88 582.927 1801.85 581.603C1799.27 580.476 1795.75 581 1793 581L1775 581L1713 581L1694 581C1690.97 581 1687.06 580.421 1684.23 581.742M134 599L134 601C159.356 602.089 184.651 607.175 210 608.911C292.992 614.594 376.641 617.027 460 614.985C478.993 614.52 498.022 612.87 517 612.039C537.638 611.136 558.429 610.788 579 608.83C593.639 607.437 608.405 606.448 623 604.714C633.008 603.526 642.915 601.433 653 601L653 599C633.158 598.945 612.787 594.053 593 592.17C547.935 587.881 502.237 586.123 457 585.015C378.736 583.098 299.933 584.753 222 590.089C200.318 591.574 178.622 593.904 157 596.17C149.31 596.976 141.76 598.667 134 599M181 621L181 757L181 792C181 795.562 179.71 802.419 182.028 805.401C184.487 808.564 193.3 808.477 197 808.83C212.022 810.266 228.159 809.372 243 806.92C288.589 799.386 327.204 775.769 359.014 743C371.742 729.888 386.845 711.895 392 694L394 694C399.172 711.918 414.306 729.6 426.816 742.911C458.177 776.277 499.165 800.704 545 807.271C559.824 809.395 576.097 810.452 591 808.424C594.684 807.922 602.422 808.435 604.972 805.258C607.297 802.362 606 795.491 606 792L606 757L606 621C589.971 621.133 574.05 624.867 558 625L558 761C508.613 757.097 464.672 721.028 440.201 680C433.805 669.277 429.135 657.876 425.344 646C424.082 642.046 423.689 633.685 420.272 631.028C417.147 628.597 409.747 630 406 630C393.843 630 381.145 628.935 369.044 630.059C362.69 630.648 362.287 640.025 360.67 645C355.606 660.579 349.395 675.13 340.564 689C323.117 716.402 297.396 737.063 268 750.306C255.962 755.728 241.312 760.89 228 761L228 625C212.31 624.676 196.678 621.324 181 621z"/>
</svg>
